<svg id="Capa_1" data-name="Capa 1" xmlns="http://www.w3.org/2000/svg" viewBox="0 0 369.7 369.7"><defs><style>.cls-1{fill:#5a6b87;}</style></defs><title>arrowDrawBot</title><path class="cls-1" d="M91.23,357.51h0a8.64,8.64,0,0,0,5.19,4.32c50.2,7.79,105.16-2.16,153.63-16a5.57,5.57,0,0,0,3.46-6.06c3.46-1.73,5.62-6.49,2.16-9.95-10.38-12.12-22.93-23.8-35.48-34.62C304.14,233.74,363.86,69.29,247,11.31a.6.6,0,0,0-.87,0c0-2.6-2.6-5.2-5.62-5.63-10-1.3-21.64,0-32,.87-6.49.43-23.37-.87-26,7.79l-.44.43c-20.77,15.58-34.62,37.21-50.19,58a4.12,4.12,0,0,0-.87,4.32,3.93,3.93,0,0,0-.87,6.06c32.46,34.19,18.18,79.63-10.38,110.79-1.73,1.73-1.3,4.76-.43,6.49a4.65,4.65,0,0,0-2.6.86c-.87-1.73-3-2.16-4.76-2.16-.43-2.17-2.17-4.76-4.76-3.9-10.39.87-19.91,5.2-30.73,5.63A7.52,7.52,0,0,0,70,205.61c-6.49,31.59-12.55,63.61-12.55,95.64C58.34,320.29,64.4,359.24,91.23,357.51Zm50.2-277a7.79,7.79,0,0,0,3-2.17c14.29-19.47,26.4-40.24,45.44-55.82l.44-.44c2.16.44,4.76-.43,6.49-.43,5.19-.86,10.82-1.3,16.44-1.73l16.88-1.3c-18.18,16.45-35,34.19-49.33,53.66a6.08,6.08,0,0,0-.87,5.2,3.37,3.37,0,0,0,.87,3.46c36.78,47.17,9.95,107.75-28.57,145.4a2.24,2.24,0,0,1-.86-1.73c-6.06-6.92-14.71-18.17-23.8-22.93C162.2,175.75,178.64,110,141.43,80.55ZM160,237.63c39.82-35.48,79.2-115.54,31.59-158.82,16.45-19,34.19-37.65,51.07-56.25,97.8,64,50.2,206.85-32,264h0l-.44-.43a4.91,4.91,0,0,0-6.92,6.93c12.55,15.14,26.4,30.72,41.11,43.7-47.17,5.63-93.47,16.45-141.51,11.69,7.79-44.14,12.12-89.15,14.71-134.16,3.47,2.6,7.36,5.63,10.82,8.23,4.33,3.46,9.09,7.35,13.42,10.82a6.43,6.43,0,0,0,6.06,1.73C149.65,238.5,155.71,241.1,160,237.63ZM72.62,273.12c1.3-15.15,4.33-30.29,6.92-45.87.87-5.19,2.17-10.82,3-16,.43-1.3,16.88-4.76,23.8-6.5C99.45,251.48,95.12,298.22,89.06,345,67.43,328.51,70.45,299.52,72.62,273.12Z"/></svg>