<?xml version="1.0" encoding="utf-8"?>
<!-- Generator: Adobe Illustrator 21.0.0, SVG Export Plug-In . SVG Version: 6.00 Build 0)  -->
<svg version="1.1" id="Слой_1" xmlns="http://www.w3.org/2000/svg" xmlns:xlink="http://www.w3.org/1999/xlink" x="0px" y="0px"
	 viewBox="0 0 215.6 149.3" style="enable-background:new 0 0 215.6 149.3;" xml:space="preserve">
<style type="text/css">
	.st0{fill:#FFFFFF;}
</style>
<title>arrow-right-dark</title>
<path class="st0" d="M3.2,67.6c-3.9,3.9-3.9,10.2,0,14.1l64,64c0.1,0.1,0.2,0.2,0.2,0.2c4,3.8,10.3,3.7,14.1-0.2s3.7-10.3-0.2-14.1
	L34.4,84.6h170.9c5.5,0,10-4.5,10-10s-4.5-10-10-10H34.4l46.9-46.9c3.9-3.9,3.9-10.2,0-14.2c-3.9-3.9-10.2-3.9-14.2,0L3.2,67.6
	L3.2,67.6z"/>
</svg>
