<svg id="Capa_1" data-name="Capa 1" xmlns="http://www.w3.org/2000/svg" viewBox="0 0 111.58 111.58"><defs><style>.cls-1{fill:#2e4161;}</style></defs><title>i-icon</title><path class="cls-1" d="M79,99.54l-1.56,6.37c-4.67,1.85-8.41,3.25-11.19,4.22a29.52,29.52,0,0,1-9.71,1.45c-5.66,0-10.07-1.39-13.21-4.14a13.43,13.43,0,0,1-4.71-10.53,36.7,36.7,0,0,1,.35-5.06c.24-1.73.62-3.67,1.14-5.85l5.85-20.69c.52-2,1-3.85,1.31-5.63a24.39,24.39,0,0,0,.53-4.85c0-2.64-.54-4.49-1.63-5.53S43,47.74,39.88,47.74a16.32,16.32,0,0,0-4.65.71c-1.59.47-2.95.93-4.09,1.35l1.56-6.38q5.74-2.34,11-4a32.91,32.91,0,0,1,9.94-1.67q8.43,0,13,4.08a13.51,13.51,0,0,1,4.57,10.59c0,.9-.1,2.48-.32,4.75a31.63,31.63,0,0,1-1.17,6.23L63.9,84c-.47,1.65-.9,3.55-1.28,5.68a29.48,29.48,0,0,0-.56,4.81c0,2.74.61,4.6,1.83,5.6s3.35,1.48,6.37,1.48a18.5,18.5,0,0,0,4.81-.74A26.8,26.8,0,0,0,79,99.54ZM80.44,13a12.06,12.06,0,0,1-4.07,9.18A13.87,13.87,0,0,1,66.56,26a14,14,0,0,1-9.85-3.79A12,12,0,0,1,52.6,13a12.17,12.17,0,0,1,4.11-9.21,14.56,14.56,0,0,1,19.66,0A12.2,12.2,0,0,1,80.44,13Z"/></svg>