<svg id="Capa_1" data-name="Capa 1" xmlns="http://www.w3.org/2000/svg" viewBox="0 0 56.45 56.45"><defs><style>.cls-1{fill:#8dc8e9;}</style></defs><title>ico-title-topGamers</title><path class="cls-1" d="M15,52.74s2.77-5.11,7-3.05C22,49.69,21.5,53.94,15,52.74Z"/><path class="cls-1" d="M20.59,41.52s-2.77,5.11,1.3,7.55C21.89,49.07,25.16,46.32,20.59,41.52Z"/><path class="cls-1" d="M18.08,39.76s-3.74,4.45-.25,7.65C17.83,47.41,21.59,45.39,18.08,39.76Z"/><path class="cls-1" d="M15.39,37.48s-4.1,4.12-.89,7.61C14.5,45.09,18.42,43.38,15.39,37.48Z"/><path class="cls-1" d="M13.41,34.7s-4.65,3.47-2,7.39C11.44,42.09,15.56,41,13.41,34.7Z"/><path class="cls-1" d="M12.4,31.45s-5.34,2.29-3.68,6.72C8.72,38.17,13,38.06,12.4,31.45Z"/><path class="cls-1" d="M11.79,27.59S6.2,29.2,7.32,33.81C7.32,33.81,11.58,34.22,11.79,27.59Z"/><path class="cls-1" d="M12.28,24.17s-5.56.2-5.6,4.73C6.68,28.91,10.53,30.28,12.28,24.17Z"/><path class="cls-1" d="M12.79,20.59s-5.46-.31-5.91,4.12C6.88,24.71,10.52,26.41,12.79,20.59Z"/><path class="cls-1" d="M14.75,16.9s-5.45-1-6.5,3.36C8.25,20.26,11.69,22.46,14.75,16.9Z"/><path class="cls-1" d="M17.52,13.85s-5.09-2-6.88,2.1C10.64,16,13.58,18.69,17.52,13.85Z"/><path class="cls-1" d="M20.87,11.6s-4.25-2.78-6.67.58C14.2,12.19,16.35,15.23,20.87,11.6Z"/><path class="cls-1" d="M10.91,49.87s3.92-4.3,7.56-1.27C18.47,48.6,17,52.6,10.91,49.87Z"/><path class="cls-1" d="M7.19,47.06s4.29-3.93,7.64-.58C14.83,46.48,13,50.33,7.19,47.06Z"/><path class="cls-1" d="M4.46,43.62s4.7-3.4,7.65.31C12.11,43.93,9.81,47.53,4.46,43.62Z"/><path class="cls-1" d="M2.13,39.61S7.34,37,9.62,41.19C9.62,41.19,6.76,44.36,2.13,39.61Z"/><path class="cls-1" d="M.71,35.62S6.18,33.64,8,38C8,38,4.77,40.85.71,35.62Z"/><path class="cls-1" d="M0,31.25s5.73-1,6.73,3.65C6.73,34.9,3.07,37.12,0,31.25Z"/><path class="cls-1" d="M.1,26.74s5.81.07,6,4.81C6.07,31.55,2.07,33.07.1,26.74Z"/><path class="cls-1" d="M.72,22.44s5.74.92,5.21,5.62C5.92,28.06,1.75,29,.72,22.44Z"/><path class="cls-1" d="M1.84,18.43s5.62,1.47,4.62,6.1C6.46,24.53,2.22,25.05,1.84,18.43Z"/><path class="cls-1" d="M3.68,14.62S9,16.93,7.32,21.36C7.31,21.36,3,21.23,3.68,14.62Z"/><path class="cls-1" d="M6.28,10.86S11.17,14,8.78,18.1C8.79,18.1,4.59,17.27,6.28,10.86Z"/><path class="cls-1" d="M9.45,7.76s4.3,3.91,1.27,7.55C10.72,15.31,6.72,13.8,9.45,7.76Z"/><path class="cls-1" d="M13.58,5.26s3.1,4.91-.78,7.62C12.8,12.88,9.34,10.36,13.58,5.26Z"/><path class="cls-1" d="M18.14,3.5S20,9,15.55,10.7C15.55,10.7,12.8,7.43,18.14,3.5Z"/><path class="cls-1" d="M24.2,6.43S22,11.86,17.52,10.29C17.52,10.29,17.53,6,24.2,6.43Z"/><path class="cls-1" d="M41.47,52.74s-2.77-5.11-7-3.05C34.44,49.69,35,53.94,41.47,52.74Z"/><path class="cls-1" d="M35.86,41.52s2.76,5.11-1.3,7.55C34.56,49.07,31.28,46.32,35.86,41.52Z"/><path class="cls-1" d="M38.37,39.76s3.74,4.45.25,7.65C38.62,47.41,34.86,45.39,38.37,39.76Z"/><path class="cls-1" d="M41.06,37.48s4.09,4.12.89,7.61C42,45.09,38,43.38,41.06,37.48Z"/><path class="cls-1" d="M43,34.7s4.66,3.47,2,7.39C45,42.09,40.89,41,43,34.7Z"/><path class="cls-1" d="M44,31.45s5.35,2.29,3.68,6.72C47.73,38.17,43.46,38.06,44,31.45Z"/><path class="cls-1" d="M44.66,27.59s5.59,1.61,4.47,6.22C49.13,33.81,44.87,34.22,44.66,27.59Z"/><path class="cls-1" d="M44.17,24.17s5.55.2,5.59,4.73C49.77,28.91,45.91,30.28,44.17,24.17Z"/><path class="cls-1" d="M43.65,20.59s5.47-.31,5.91,4.12C49.57,24.71,45.92,26.41,43.65,20.59Z"/><path class="cls-1" d="M41.69,16.9s5.46-1,6.51,3.36C48.2,20.26,44.75,22.46,41.69,16.9Z"/><path class="cls-1" d="M38.93,13.85s5.1-2,6.88,2.1C45.81,16,42.87,18.69,38.93,13.85Z"/><path class="cls-1" d="M35.58,11.6s4.25-2.78,6.67.58C42.25,12.19,40.09,15.23,35.58,11.6Z"/><path class="cls-1" d="M45.53,49.87S41.61,45.57,38,48.6C38,48.6,39.48,52.6,45.53,49.87Z"/><path class="cls-1" d="M49.26,47.06s-4.29-3.93-7.64-.58C41.61,46.48,43.48,50.33,49.26,47.06Z"/><path class="cls-1" d="M52,43.62s-4.71-3.4-7.65.31C44.33,43.93,46.63,47.53,52,43.62Z"/><path class="cls-1" d="M54.32,39.61s-5.21-2.58-7.5,1.58C46.82,41.19,49.69,44.36,54.32,39.61Z"/><path class="cls-1" d="M55.74,35.62s-5.47-2-7.27,2.4C48.47,38,51.67,40.85,55.74,35.62Z"/><path class="cls-1" d="M56.45,31.25s-5.73-1-6.73,3.65C49.72,34.9,53.37,37.12,56.45,31.25Z"/><path class="cls-1" d="M56.35,26.74s-5.81.07-6,4.81C50.38,31.55,54.37,33.07,56.35,26.74Z"/><path class="cls-1" d="M55.72,22.44s-5.74.92-5.2,5.62C50.52,28.06,54.7,29,55.72,22.44Z"/><path class="cls-1" d="M54.61,18.43S49,19.9,50,24.53C50,24.53,54.23,25.05,54.61,18.43Z"/><path class="cls-1" d="M52.77,14.62s-5.33,2.31-3.64,6.74C49.13,21.36,53.4,21.23,52.77,14.62Z"/><path class="cls-1" d="M50.17,10.86S45.28,14,47.67,18.1C47.66,18.1,51.86,17.27,50.17,10.86Z"/><path class="cls-1" d="M47,7.76s-4.31,3.91-1.27,7.55C45.73,15.31,49.72,13.8,47,7.76Z"/><path class="cls-1" d="M42.87,5.26s-3.11,4.91.79,7.62C43.65,12.88,47.11,10.36,42.87,5.26Z"/><path class="cls-1" d="M38.3,3.5S36.47,9,40.9,10.7C40.9,10.7,43.65,7.43,38.3,3.5Z"/><path class="cls-1" d="M32.25,6.43s2.18,5.43,6.68,3.86C38.93,10.29,38.92,6,32.25,6.43Z"/><path class="cls-1" d="M16.71,35.61l.37-.34a5.62,5.62,0,0,1,1.2-.83l.39-.21,1.44-.75c.5-.23,1-.44,1.5-.65l1.55-.64h0c0-.54-.12-1.09.27-1.55,0,0,0,0,0-.05.19-.42.26-.89.49-1.3a4.54,4.54,0,0,1-.5-1.41,1.05,1.05,0,0,0-.09-.27,3.12,3.12,0,0,1-.18-.48c-.13-.44-.24-.87-.33-1.31a2.67,2.67,0,0,1-.06-.49,1.77,1.77,0,0,1,.14-1,4.71,4.71,0,0,0-.42-.36c-.15-.14-.17-.25,0-.39a2.29,2.29,0,0,1,.23-.17l0-.07a1.5,1.5,0,0,0-.3,0c-.36.06-.73.11-1.1.2a4.5,4.5,0,0,0-1.9.83,1.71,1.71,0,0,0-.72,1.19c0,.28,0,.55,0,.82,0,.44,0,.89,0,1.32,0,.08,0,.2-.09.21s-.18.17-.15.32a3,3,0,0,0,0,.31c.06.28.13.55.21.83s.17.4.21.6A2,2,0,0,0,19.31,31a.27.27,0,0,1,.07.21c0,.31-.05.63-.09.94a.25.25,0,0,1-.13.17c-.21,0-.24.2-.29.36a6,6,0,0,1-.23.64.29.29,0,0,1-.15.16L17.36,34c-.4.17-.81.33-1.2.52s-.79.41-1.19.62a3.54,3.54,0,0,0-.63.44v.69h2.37v-.63h0Z"/><path class="cls-1" d="M41.51,35.08A34.9,34.9,0,0,0,38,33.54a.49.49,0,0,1-.24-.18c-.09-.22-.16-.45-.23-.68s-.08-.28-.25-.35a.23.23,0,0,1-.08-.16c0-.53-.11-1.08.28-1.54l0-.05A8.13,8.13,0,0,1,38,29.16a.06.06,0,0,0,0,0c0-.33.06-.66.1-1a.19.19,0,0,0-.07-.13c-.16-.06-.15-.19-.15-.32V25.75a1.25,1.25,0,0,0-.39-1c-.32-.29-.65-.56-1-.84-.16-.14-.18-.25,0-.39a2.29,2.29,0,0,1,.23-.17.35.35,0,0,1,0-.08,1.38,1.38,0,0,0-.29,0c-.37.06-.74.11-1.1.2a5,5,0,0,0-1.58.64l0,.89c0,.39-.07.78-.12,1.16l-.06.66-.19.31a3.11,3.11,0,0,0-.35.92,9,9,0,0,1-.36,1l-.06.11a.3.3,0,0,1,0,.1c.06.21.18.4.22.6A1.94,1.94,0,0,0,33.32,31a.34.34,0,0,1,.08.21c0,.32,0,.63-.1.94,0,0,0,0,0,0,1.53.6,3.25,1.31,4.93,2.17a4.82,4.82,0,0,1,1.21.88l.33.35v.63h2.37v-.73A2.07,2.07,0,0,0,41.51,35.08Z"/><path class="cls-1" d="M37.67,35.42a53.81,53.81,0,0,0-5.34-2.32.68.68,0,0,1-.35-.27c-.14-.33-.24-.67-.35-1s-.13-.43-.37-.53a.31.31,0,0,1-.12-.24c0-.8-.17-1.63.42-2.33a.2.2,0,0,0,0-.08,13.88,13.88,0,0,1,.82-2.14s0,0,0,0c.05-.49.1-1,.14-1.49,0-.06,0-.17-.1-.18-.24-.09-.23-.29-.23-.49V21.39a1.89,1.89,0,0,0-.59-1.45l-1.48-1.27c-.25-.21-.26-.36,0-.59s.23-.17.34-.25l-.07-.11a3.38,3.38,0,0,0-.45,0c-.55.09-1.1.17-1.64.29a6.92,6.92,0,0,0-2.87,1.26,2.59,2.59,0,0,0-1.09,1.8c0,.41,0,.82,0,1.22,0,.67,0,1.33,0,2,0,.1-.06.28-.14.3-.27.09-.27.26-.24.49a3.42,3.42,0,0,0,0,.46c.09.42.19.83.31,1.24s.26.59.32.9a3,3,0,0,0,.73,1.62.47.47,0,0,1,.12.31c0,.48-.08,1-.15,1.43,0,.09-.11.23-.19.24-.31.07-.36.32-.43.56s-.21.65-.34,1a.49.49,0,0,1-.23.24l-1.71.71c-.6.25-1.21.5-1.8.78s-1.2.62-1.79.93a4.56,4.56,0,0,0-.95.65v1H38.56V36.07A3.52,3.52,0,0,0,37.67,35.42Z"/></svg>