<svg id="Layer_1" data-name="Layer 1" xmlns="http://www.w3.org/2000/svg" viewBox="0 0 56 62"><defs><style>.cls-1{fill:#fff;}</style></defs><title>ico_video</title><path class="cls-1" d="M55.32,22.75a1.39,1.39,0,0,0-1.37,0l-9,4.83V23.41A1.39,1.39,0,0,0,43.6,22H41.34A12.43,12.43,0,1,0,21.43,9.44,9.37,9.37,0,1,0,7.55,22H6.29A1.39,1.39,0,0,0,4.9,23.41v6.3H1.39A1.39,1.39,0,0,0,0,31.09v5.46a1.39,1.39,0,0,0,1.39,1.39H4.9v6.3a1.39,1.39,0,0,0,1.39,1.39H22.65L15.13,60a1.39,1.39,0,1,0,2.46,1.28l7.35-14.09,7.35,14.09A1.39,1.39,0,0,0,34.75,60L27.23,45.62H43.6A1.39,1.39,0,0,0,45,44.24V40.1l9,4.83a1.39,1.39,0,0,0,2-1.22V23.94A1.39,1.39,0,0,0,55.32,22.75ZM33.52,2.7a9.66,9.66,0,1,1-9.66,9.66A9.67,9.67,0,0,1,33.52,2.7ZM25.7,22H20.86a9.41,9.41,0,0,0,2.07-3.16A12.53,12.53,0,0,0,25.7,22ZM7.6,15.42a6.6,6.6,0,1,1,6.6,6.6A6.61,6.61,0,0,1,7.6,15.42ZM2.77,35.16V32.48H4.9v2.68Zm39.43,7.69H7.67V24.8H42.21V42.85Zm11-1.47L45,36.95V30.7l8.24-4.44Z"/><path class="cls-1" d="M14.21,11.2a4.21,4.21,0,1,0,4.21,4.21A4.22,4.22,0,0,0,14.21,11.2Zm0,5.93a1.72,1.72,0,1,1,1.72-1.72A1.72,1.72,0,0,1,14.21,17.14Z"/><path class="cls-1" d="M33.52,18.41a6.05,6.05,0,1,0-6.05-6.05A6.06,6.06,0,0,0,33.52,18.41Zm0-9.33a3.28,3.28,0,1,1-3.28,3.28A3.28,3.28,0,0,1,33.52,9.08Z"/><path class="cls-1" d="M29,28.83H14a1.32,1.32,0,0,0-1.32,1.32V37.5A1.32,1.32,0,0,0,14,38.81H29a1.32,1.32,0,0,0,1.32-1.32V30.15A1.32,1.32,0,0,0,29,28.83Zm-1.32,7.35H15.28V31.47H27.73Z"/><circle class="cls-1" cx="36.32" cy="31.54" r="1.39"/><circle class="cls-1" cx="36.32" cy="36.11" r="1.39"/></svg>