<?xml version="1.0" encoding="utf-8"?>
<!-- Generator: Adobe Illustrator 21.0.0, SVG Export Plug-In . SVG Version: 6.00 Build 0)  -->
<svg version="1.1" id="Capa_1" xmlns="http://www.w3.org/2000/svg" xmlns:xlink="http://www.w3.org/1999/xlink" x="0px" y="0px"
	 viewBox="0 0 20 20" style="enable-background:new 0 0 20 20;" xml:space="preserve">
<style type="text/css">
	.st0{fill:#2E4161;}
</style>
<g>
	<path class="st0" d="M17.3,0H2.7C2.2,0,1.8,0.4,1.8,0.9v10.9c0,2,1.4,4,4,5.9c1.9,1.4,3.7,2.2,3.8,2.2C9.7,20,9.9,20,10,20
		c0.1,0,0.3,0,0.4-0.1c0.1,0,1.9-0.9,3.8-2.2c2.7-1.9,4-3.9,4-5.9V0.9C18.2,0.4,17.8,0,17.3,0z M16.4,11.8c0,1.7-1.8,3.3-3.2,4.4
		c-1.2,0.9-2.5,1.6-3.1,1.9c-0.6-0.3-1.9-1-3.1-1.9c-1.5-1.1-3.2-2.7-3.2-4.4v-10h12.7V11.8z"/>
	<path class="st0" d="M8.3,11.8C8.5,12,8.7,12.1,9,12.1c0.2,0,0.5-0.1,0.7-0.3l4-4.2c0.3-0.4,0.3-0.9,0-1.3c-0.4-0.3-0.9-0.3-1.3,0
		L9,9.9L7.6,8.5c-0.3-0.4-0.9-0.4-1.3,0C6,8.8,6,9.4,6.3,9.7L8.3,11.8z"/>
</g>
</svg>
