<svg id="Слой_1" data-name="Слой 1" xmlns="http://www.w3.org/2000/svg" viewBox="0 0 20 20"><defs><style>.cls-1{fill:#66758e;}</style></defs><title>ico_calendar</title><path class="cls-1" d="M18.94,3.28a1.37,1.37,0,0,0-1-.42H16.51V1.79A1.72,1.72,0,0,0,16,.52,1.72,1.72,0,0,0,14.72,0H14a1.72,1.72,0,0,0-1.26.52,1.72,1.72,0,0,0-.53,1.26V2.86H7.93V1.79A1.72,1.72,0,0,0,7.41.52,1.72,1.72,0,0,0,6.15,0H5.43A1.72,1.72,0,0,0,4.17.52a1.72,1.72,0,0,0-.52,1.26V2.86H2.22a1.37,1.37,0,0,0-1,.42,1.37,1.37,0,0,0-.42,1V18.57a1.37,1.37,0,0,0,.42,1,1.37,1.37,0,0,0,1,.42H17.93a1.45,1.45,0,0,0,1.43-1.43V4.29a1.37,1.37,0,0,0-.42-1Zm-5.29-1.5A.34.34,0,0,1,14,1.43h.71a.34.34,0,0,1,.36.36V5a.34.34,0,0,1-.36.36H14A.34.34,0,0,1,13.65,5Zm-8.57,0a.34.34,0,0,1,.36-.36h.71a.34.34,0,0,1,.36.36V5a.34.34,0,0,1-.36.36H5.43A.34.34,0,0,1,5.08,5ZM17.93,18.57H2.22V7.14H17.93Zm0,0"/><rect class="cls-1" x="4.19" y="9.9" width="1.94" height="1.94"/><rect class="cls-1" x="14.02" y="9.9" width="1.94" height="1.94"/><rect class="cls-1" x="9.08" y="9.9" width="1.94" height="1.94"/><rect class="cls-1" x="4.19" y="14.01" width="1.94" height="1.94"/><rect class="cls-1" x="14.02" y="14.01" width="1.94" height="1.94"/><rect class="cls-1" x="9.08" y="14.01" width="1.94" height="1.94"/></svg>