<svg id="Слой_1" data-name="Слой 1" xmlns="http://www.w3.org/2000/svg" viewBox="0 0 255.97 255.98"><defs><style>.cls-1{fill:#2e4161;}</style></defs><title>mobmail</title><path class="cls-1" d="M161.47,56H243.9C252.3,56,256,59.68,256,68.2q0,49.71,0,99.42c0,8.65-3.75,12.34-12.5,12.35H78.59c-8.6,0-12.4-3.78-12.41-12.53q-.06-49.46,0-98.92C66.19,59.52,69.89,56,79,56ZM197,118.75c14.09-11.74,27.66-23,41.16-34.33,4.25-3.57,4.89-7.11,2.21-10.25s-6.49-2.9-10.56.49C207.94,92.84,186,111,164.23,129.28c-2.53,2.12-4.08,1.83-6.34-.07q-21.59-18.14-43.32-36.12c-7.8-6.49-15.59-13-23.46-19.4-3.2-2.6-6.56-2.5-9.27.68-2.58,3-2,6.15.77,8.85,1.31,1.28,2.73,2.44,4.14,3.61L125.6,119a22.47,22.47,0,0,0-2.77,1.67q-19.61,16.23-39.18,32.51c-3.71,3.09-4.41,6.89-1.91,10,2.27,2.8,6.18,3,9.77.19,3.16-2.43,6.18-5.06,9.26-7.61l34.56-28.63c6.81,5.66,13.32,11.09,19.86,16.5,4.58,3.78,7.23,3.72,11.85-.1,6.51-5.39,13-10.75,19.79-16.32,1.46,1.16,2.76,2.16,4,3.2,13.19,10.94,26.33,21.94,39.59,32.81,3.82,3.13,7.61,2.86,10.09-.23s1.77-6.64-2.11-9.91c-2.42-2-4.89-4-7.32-6Z"/><path class="cls-1" d="M192,38.64H167.89c0-2.78,0-5.53,0-8.29-.06-5.85-.72-6.53-6.71-6.53q-60,0-120,0c-3.67,0-7.34.18-11,0-4.57-.29-6.21,1.7-6.18,6.17.12,19.66.05,39.33.05,59q0,57.74,0,115.48c0,7.55.35,7.91,7.89,7.91H159c8.92,0,8.93,0,8.94-8.87,0-1.82,0-3.64,0-5.85h23.8c.09,1,.26,1.93.27,2.87,0,12.83.09,25.66,0,38.49-.08,9.94-6.69,16.92-16.47,16.94q-79.49.14-159,0C6.56,255.89,0,248.8,0,238.46Q0,189.21,0,140,0,79.48,0,19C0,6.26,6.27,0,19,0H173c12.72,0,19,6.28,19,19C192,25.48,192,31.93,192,38.64ZM95.87,244.1c5.88,0,10.06-4,10.15-9.78A10,10,0,1,0,86,234.1,9.57,9.57,0,0,0,95.87,244.1Z"/></svg>